<svg width="182" height="182" viewBox="0 0 182 182" fill="none" xmlns="http://www.w3.org/2000/svg">
<g clip-path="url(#clip0_265_1170)">
<path d="M182 91C182 141.258 141.258 182 91 182C85.4177 182 79.9531 181.497 74.6484 180.535C73.4519 180.318 71.4492 177.43 70.2694 177.167C47.6424 172.115 32.0082 159.666 19.2028 141.227C18.4815 140.188 14.7818 140.752 14.1036 139.683C5.17207 125.605 0 108.906 0 91C0 40.7421 40.7421 0 91 0C141.258 0 182 40.7421 182 91Z" fill="#F8F8F8"/>
<path d="M160.128 95.8503C160.128 130.825 131.775 159.177 96.8012 159.177C61.827 159.177 33.4752 130.825 33.4752 95.8503C33.4752 60.8761 61.8274 32.5239 96.8012 32.5239C131.775 32.5239 160.128 60.8761 160.128 95.8503Z" fill="#F4F4F4"/>
<path d="M113.691 153.795C115.655 153.795 117.246 155.387 117.246 157.35V164.217C117.246 166.181 115.655 167.772 113.691 167.772C111.728 167.772 110.137 166.181 110.137 164.217V157.35C110.137 155.387 111.728 153.795 113.691 153.795ZM121.523 155.514L126.379 160.37C127.767 161.759 130.018 161.759 131.406 160.37C132.794 158.982 132.794 156.732 131.406 155.343L126.55 150.487C125.162 149.099 122.911 149.099 121.523 150.487C120.135 151.875 120.135 154.126 121.523 155.514ZM95.9766 160.37C97.3647 161.759 99.6155 161.759 101.004 160.37L105.86 155.514C107.248 154.126 107.248 151.875 105.86 150.487C104.472 149.099 102.221 149.099 100.833 150.487L95.9766 155.343C94.5885 156.732 94.5885 158.982 95.9766 160.37Z" fill="#D5D5D5"/>
<path d="M74.6484 142.188V180.535C48.7892 175.843 26.7362 160.223 13.447 138.633H71.0938C73.057 138.633 74.6484 140.224 74.6484 142.188ZM71.0938 21.3281H13.2888C11.3256 21.3281 9.73416 22.9199 9.73416 24.8828V82.6881C9.73416 84.6513 11.3256 86.2428 13.2888 86.2428H71.0938C73.057 86.2428 74.6484 84.6513 74.6484 82.6881V24.8828C74.6484 22.9196 73.057 21.3281 71.0938 21.3281Z" fill="#FF3980"/>
<path d="M29.6514 145.014L17.3433 147.852C15.4302 148.293 13.522 147.1 13.0809 145.187L0.0916837 88.8597C-0.349453 86.9469 0.843856 85.0384 2.75663 84.5972L15.0647 81.7592C16.9779 81.318 18.886 82.5113 19.3272 84.4241L32.316 140.751C32.7575 142.664 31.5645 144.572 29.6514 145.014Z" fill="#FF3980"/>
<path d="M73.6702 134.863L26.936 145.64C25.0229 146.081 23.1147 144.888 22.6736 142.975L9.68473 86.6477C9.2436 84.7349 10.4369 82.8264 12.3497 82.3853L59.0839 71.6085C60.997 71.1674 62.9052 72.3607 63.3463 74.2735L76.3351 130.6C76.7763 132.513 75.5833 134.422 73.6702 134.863Z" fill="#FF5E95"/>
<path d="M20.9727 36.7815C20.9727 34.8182 22.5641 33.2268 24.5273 33.2268H55.8086C57.7718 33.2268 59.3633 34.8182 59.3633 36.7815C59.3633 38.7447 57.7718 40.3362 55.8086 40.3362H24.5273C22.5641 40.3362 20.9727 38.7447 20.9727 36.7815ZM55.8086 47.4456H24.5273C22.5641 47.4456 20.9727 49.037 20.9727 51.0002C20.9727 52.9635 22.5641 54.5549 24.5273 54.5549H55.8086C57.7718 54.5549 59.3633 52.9635 59.3633 51.0002C59.3633 49.037 57.7718 47.4456 55.8086 47.4456ZM38.5328 61.6643H24.5273C22.5641 61.6643 20.9727 63.2557 20.9727 65.219C20.9727 67.1823 22.5641 68.7737 24.5273 68.7737H38.5328C40.4961 68.7737 42.0875 67.1823 42.0875 65.219C42.0875 63.2557 40.4961 61.6643 38.5328 61.6643Z" fill="#FFA2C3"/>
<path d="M102.277 24.8828V82.6881C102.277 84.6513 100.686 86.2428 98.7226 86.2428H85.3132C83.3499 86.2428 81.7585 84.6513 81.7585 82.6881V24.8828C81.7585 22.9199 83.3499 21.3281 85.3132 21.3281H98.7226C100.685 21.3281 102.277 22.9199 102.277 24.8828Z" fill="#FFAA00"/>
<path d="M146.672 24.8828V82.6881C146.672 84.6513 145.081 86.2428 143.118 86.2428H96.3928C94.4296 86.2428 92.8381 84.6513 92.8381 82.6881V24.8828C92.8381 22.9196 94.4296 21.3281 96.3928 21.3281H143.118C145.081 21.3281 146.672 22.9196 146.672 24.8828Z" fill="#FFB509"/>
<path d="M112.212 79.1477L105.381 136.548C105.149 138.497 103.381 139.89 101.431 139.658L88.0638 138.067C86.1144 137.835 84.7221 136.067 84.9542 134.117L91.7849 76.717C92.017 74.7676 93.7851 73.3752 95.7348 73.607L109.102 75.1977C111.051 75.4298 112.444 77.1983 112.212 79.1477Z" fill="#FFC143"/>
<path d="M156.245 84.3876L149.414 141.788C149.182 143.737 147.414 145.13 145.464 144.898L100.011 139.489C98.0618 139.257 96.6694 137.489 96.9015 135.539L103.732 78.1389C103.964 76.1895 105.732 74.7971 107.682 75.0289L153.136 80.438C155.085 80.6698 156.477 82.4386 156.245 84.3876Z" fill="#FFCD6B"/>
<path d="M118.811 111.905C118.652 113.862 116.937 115.319 114.98 115.16L101.021 114.026C99.0638 113.867 97.6067 112.151 97.7656 110.195C97.9245 108.238 99.64 106.781 101.597 106.94L115.556 108.074C117.513 108.233 118.97 109.948 118.811 111.905ZM133.927 95.3016L102.749 92.7678C100.792 92.6085 99.0766 94.0659 98.9177 96.0228C98.7588 97.9796 100.216 99.6948 102.173 99.8537L133.351 102.388C135.308 102.547 137.023 101.09 137.182 99.1328C137.341 97.1759 135.884 95.4604 133.927 95.3016Z" fill="#FF9500"/>
<path d="M128.839 18.6635L124.156 76.2789C123.997 78.2358 122.282 79.6928 120.325 79.5339L107.419 78.4849C105.463 78.326 104.006 76.6109 104.164 74.654L108.847 17.0386C109.006 15.0821 110.721 13.6247 112.678 13.7836L125.584 14.8326C127.54 14.9915 128.997 16.707 128.839 18.6635Z" fill="#009B5E"/>
<path d="M173.548 22.2976L168.865 79.913C168.706 81.8698 166.991 83.3269 165.035 83.168L119.7 79.4832C117.743 79.3243 116.286 77.6092 116.445 75.6523L121.127 18.0369C121.286 16.08 123.002 14.623 124.958 14.7819L170.293 18.4667C172.25 18.6256 173.707 20.3407 173.548 22.2976Z" fill="#00B972"/>
<path d="M138.856 3.55469V61.3599C138.856 63.3232 137.265 64.9146 135.302 64.9146H120.64C118.677 64.9146 117.085 63.3232 117.085 61.3599V3.55469C117.085 1.59179 118.677 0 120.64 0H135.302C137.265 0 138.856 1.59179 138.856 3.55469Z" fill="#00D683"/>
<path d="M182 3.55469V61.3599C182 63.3232 180.409 64.9146 178.445 64.9146H132.438C130.475 64.9146 128.884 63.3232 128.884 61.3599V3.55469C128.884 1.59143 130.475 0 132.438 0H178.445C180.409 0 182 1.59143 182 3.55469Z" fill="#00E294"/>
<path d="M173.849 21.4398L147.987 47.3023C147.292 47.9965 146.383 48.3435 145.473 48.3435C144.563 48.3435 143.654 47.9962 142.96 47.3023L126.346 30.6884C124.958 29.3003 124.958 27.0495 126.346 25.6614C127.734 24.2733 129.984 24.2733 131.373 25.6614L145.473 39.7617L168.823 16.4124C170.211 15.0243 172.461 15.0243 173.85 16.4124C175.238 17.8012 175.238 20.0517 173.849 21.4398Z" fill="#007E4B"/>
<path d="M44.7013 127.217C45.007 128.814 43.9609 130.356 42.3645 130.661C40.7681 130.967 39.226 129.921 38.92 128.325C38.6139 126.728 39.6604 125.186 41.2568 124.88C42.8532 124.575 44.3953 125.621 44.7013 127.217ZM48.2613 97.0174C46.7506 90.8742 40.6795 86.8976 34.4379 87.9626C28.3771 88.9977 24.0411 94.4012 24.3522 100.53C24.3802 101.09 24.4485 101.657 24.5548 102.212C24.832 103.658 26.2294 104.606 27.6747 104.329C29.1208 104.052 30.0684 102.655 29.7915 101.209C29.7315 100.896 29.6931 100.577 29.6771 100.261C29.5029 96.8269 31.9357 93.799 35.3354 93.2185C38.8364 92.621 42.2368 94.8491 43.0832 98.2907C43.535 100.128 43.2236 102.014 42.2056 103.601C41.1872 105.189 39.6071 106.259 37.7569 106.614C37.0623 106.747 36.4491 107.15 36.0524 107.735C35.6553 108.32 35.5071 109.039 35.6401 109.734L37.5038 119.462C37.7483 120.739 38.8656 121.627 40.1193 121.627C40.2857 121.627 40.4542 121.611 40.6237 121.579C42.0698 121.302 43.0175 119.905 42.7405 118.459L41.3222 111.055C43.5059 110.099 45.3916 108.509 46.6937 106.479C48.5091 103.649 49.0654 100.288 48.2613 97.0174Z" fill="#FFF5F5"/>
</g>
<defs>
<clipPath id="clip0_265_1170">
<rect width="182" height="182" fill="white"/>
</clipPath>
</defs>
</svg>
