<svg width="30" height="40" viewBox="0 0 30 40" fill="none" xmlns="http://www.w3.org/2000/svg">
<path d="M29.8281 9.46094L20.5312 0.15625H1.66406C0.835938 0.15625 0.164062 0.828125 0.164062 1.65625V28.2734H29.8281V9.46094Z" fill="#EFF3F5"/>
<path d="M20.5312 7.96094C20.5312 8.78906 21.2031 9.46094 22.0313 9.46094H29.8359L20.5312 0.15625V7.96094Z" fill="#DBDFE0"/>
<path d="M0.171875 28.2656V38.3438C0.171875 39.1719 0.84375 39.8438 1.67188 39.8438H28.3359C29.1641 39.8438 29.8359 39.1719 29.8359 38.3438V28.2656H0.171875Z" fill="#F1786B"/>
<path d="M7.39062 26.5625C6.91405 26.5625 6.45312 26.3828 6.03124 26.0312C5.3203 25.4375 5.26562 24.7812 5.33593 24.3359C5.67968 22.3281 9.41405 20.4922 11.5859 19.5859C12.7656 16.6328 13.7891 13.1562 14.4219 10.5469C13.1562 7.83594 12.7109 5.92188 13.1016 4.83594C13.2969 4.29688 13.6953 3.94531 14.2578 3.82031L14.3359 3.80469L14.4141 3.8125C14.4766 3.82031 15.0312 3.90625 15.4844 4.51562C16.0703 5.3125 16.2031 6.60156 15.875 8.35156C15.7812 8.85156 15.625 9.57031 15.4219 10.4297C16.5781 12.8359 18.2031 15.4922 19.5312 17.3359C20.6406 17.1797 21.6953 17.125 22.5859 17.2188C24.25 17.3906 24.6016 18.1172 24.6641 18.5391C24.7578 19.1563 24.3047 19.7969 23.5312 20.125C22.4609 20.5781 20.7109 20.4609 19.2891 18.6172C19.2266 18.5391 19.1641 18.4531 19.1016 18.3672C17.2734 18.6719 15.1484 19.25 12.9922 20.0547C12.7656 20.1406 12.5469 20.2266 12.3281 20.3125C10.8672 23.8906 9.43749 25.9453 8.0703 26.4375C7.85155 26.5234 7.61718 26.5625 7.39062 26.5625ZM11.0625 20.8516C7.96093 22.25 6.42187 23.6328 6.28124 24.5C6.24999 24.6875 6.24999 24.9766 6.64843 25.3047C7.01562 25.6094 7.36718 25.6875 7.7578 25.5469C8.84374 25.1562 9.99999 23.2812 11.0625 20.8516ZM20.2031 18.2188C21.2578 19.4609 22.4453 19.5625 23.1641 19.25C23.5391 19.0938 23.75 18.8281 23.7266 18.6797C23.7031 18.5234 23.3516 18.2578 22.4922 18.1719C21.8516 18.1094 21.0781 18.125 20.2031 18.2188ZM15.0781 11.8594C14.6016 13.6953 13.9531 15.9062 13.1953 18.0469C13.0625 18.4141 12.9375 18.7656 12.8047 19.1094C14.5 18.4844 16.5469 17.875 18.4922 17.5078C17.4453 16.0156 16.1562 13.9453 15.0781 11.8594ZM14.375 4.78906C14.1953 4.85156 14.0781 4.96875 14.0078 5.17187C13.7344 5.92187 14.0937 7.33594 14.7891 9.00781C14.8516 8.71094 14.9062 8.4375 14.9531 8.1875C15.3125 6.24219 14.9687 5.40625 14.7266 5.08594C14.5937 4.90625 14.4531 4.82031 14.375 4.78906Z" fill="#F1786B"/>
<path d="M22.0625 33.4531H20.2734V31.6328H22.0625C22.3984 31.6328 22.6719 31.3594 22.6719 31.0234C22.6719 30.6875 22.3984 30.4141 22.0625 30.4141H19.6719C19.3359 30.4141 19.0625 30.6875 19.0625 31.0234V37.0859C19.0625 37.4219 19.3359 37.6953 19.6719 37.6953C20.0078 37.6953 20.2813 37.4219 20.2813 37.0859V34.6641H22.0703C22.4062 34.6641 22.6797 34.3906 22.6797 34.0547C22.6719 33.7188 22.3984 33.4531 22.0625 33.4531Z" fill="#EFF3F5"/>
<path d="M9.17187 30.4224H7.9375C7.60156 30.4224 7.32812 30.6958 7.32812 31.0317V37.0942C7.32812 37.4302 7.60156 37.7036 7.9375 37.7036C8.27344 37.7036 8.54687 37.4302 8.54687 37.0942V34.6724H9.17187C10.3437 34.6724 11.2969 33.7192 11.2969 32.5474C11.2969 31.3755 10.3437 30.4224 9.17187 30.4224ZM9.17187 33.4536H8.54687V31.6333H9.17187C9.67187 31.6333 10.0781 32.0396 10.0781 32.5396C10.0781 33.0396 9.67187 33.4536 9.17187 33.4536Z" fill="#EFF3F5"/>
<path d="M14.4062 30.4219H12.8125C12.4766 30.4219 12.2031 30.6953 12.2031 31.0313V37.0937C12.2031 37.4297 12.4766 37.7031 12.8125 37.7031H14.4062C16.4141 37.7031 18.0469 36.0703 18.0469 34.0625C18.0469 32.0469 16.4141 30.4219 14.4062 30.4219ZM14.4062 36.4766H13.4219V31.625H14.4062C15.7422 31.625 16.8281 32.7109 16.8281 34.0469C16.8359 35.3906 15.7422 36.4766 14.4062 36.4766Z" fill="#EFF3F5"/>
</svg>
