<svg width="14" height="14" viewBox="0 0 14 14" fill="none" xmlns="http://www.w3.org/2000/svg">
<path d="M7.28334 7.16671V7.19518L7.30782 7.20971L10.2643 8.96388L9.81649 9.69829L6.38334 7.6384V3.71671H7.28334V7.16671ZM0.383336 7.00004C0.383336 3.34759 3.34102 0.383374 6.99334 0.383374C10.6524 0.383374 13.6167 3.34769 13.6167 7.00004C13.6167 10.6524 10.6524 13.6167 6.99334 13.6167C3.34102 13.6167 0.383336 10.6525 0.383336 7.00004ZM1.61667 7.00004C1.61667 9.97432 4.02572 12.3834 7 12.3834C9.97428 12.3834 12.3833 9.97432 12.3833 7.00004C12.3833 4.02576 9.97428 1.61671 7 1.61671C4.02572 1.61671 1.61667 4.02576 1.61667 7.00004Z" fill="#2A2A2A" stroke="white" stroke-width="0.1"/>
</svg>
